<svg xmlns="http://www.w3.org/2000/svg" xmlns:xlink="http://www.w3.org/1999/xlink" width="500" zoomAndPan="magnify" viewBox="0 0 375 374.999991" height="500" preserveAspectRatio="xMidYMid meet" version="1.0"><defs><g/><clipPath id="b47c289af3"><path d="M 285.070312 98.121094 L 304.570312 98.121094 L 304.570312 127.371094 L 285.070312 127.371094 Z M 285.070312 98.121094 " clip-rule="nonzero"/></clipPath></defs><g fill="#005eeb" fill-opacity="0.4"><g transform="translate(103.826936, 183.363358)"><g><path d="M 7 0 C 6.863281 0 6.796875 -0.0820312 6.796875 -0.25 L 6.796875 -28.75 L 0.296875 -28.75 C 0.128906 -28.75 0.046875 -28.832031 0.046875 -29 L 0.09375 -34.59375 C 0.09375 -34.726562 0.160156 -34.796875 0.296875 -34.796875 L 19.296875 -34.796875 C 19.460938 -34.796875 19.546875 -34.726562 19.546875 -34.59375 L 19.546875 -29 C 19.546875 -28.832031 19.476562 -28.75 19.34375 -28.75 L 12.796875 -28.75 L 12.84375 -0.25 C 12.84375 -0.0820312 12.78125 0 12.65625 0 Z M 7 0 "/></g></g></g><g fill="#005eeb" fill-opacity="0.4"><g transform="translate(123.823838, 183.363358)"><g><path d="M 2.25 0 C 2.082031 0 2 -0.0820312 2 -0.25 L 2.046875 -34.59375 C 2.046875 -34.726562 2.113281 -34.796875 2.25 -34.796875 L 7.84375 -34.796875 C 7.976562 -34.796875 8.046875 -34.726562 8.046875 -34.59375 L 8.09375 -0.25 C 8.09375 -0.0820312 8.03125 0 7.90625 0 Z M 2.25 0 "/></g></g></g><g fill="#005eeb" fill-opacity="1"><g transform="translate(101.61722, 181.153639)"><g><path d="M 7 0 C 6.863281 0 6.796875 -0.0820312 6.796875 -0.25 L 6.796875 -28.75 L 0.296875 -28.75 C 0.128906 -28.75 0.046875 -28.832031 0.046875 -29 L 0.09375 -34.59375 C 0.09375 -34.726562 0.160156 -34.796875 0.296875 -34.796875 L 19.296875 -34.796875 C 19.460938 -34.796875 19.546875 -34.726562 19.546875 -34.59375 L 19.546875 -29 C 19.546875 -28.832031 19.476562 -28.75 19.34375 -28.75 L 12.796875 -28.75 L 12.84375 -0.25 C 12.84375 -0.0820312 12.78125 0 12.65625 0 Z M 7 0 "/></g></g></g><g fill="#005eeb" fill-opacity="1"><g transform="translate(121.614122, 181.153639)"><g><path d="M 2.25 0 C 2.082031 0 2 -0.0820312 2 -0.25 L 2.046875 -34.59375 C 2.046875 -34.726562 2.113281 -34.796875 2.25 -34.796875 L 7.84375 -34.796875 C 7.976562 -34.796875 8.046875 -34.726562 8.046875 -34.59375 L 8.09375 -0.25 C 8.09375 -0.0820312 8.03125 0 7.90625 0 Z M 2.25 0 "/></g></g></g><g fill="#005eeb" fill-opacity="0.4"><g transform="translate(134.33084, 183.363358)"><g/></g></g><g fill="#005eeb" fill-opacity="1"><g transform="translate(132.121125, 181.153639)"><g/></g></g><path stroke-linecap="butt" transform="matrix(0.75, 0, 0, 0.75, 84.255527, 133.653668)" fill="none" stroke-linejoin="miter" d="M 1.997839 73.269072 L 1.997839 25.998236 C 1.997839 12.743027 12.742632 1.998234 25.997841 1.998234 L 67.22701 1.998234 C 80.482219 1.998234 91.227012 12.743027 91.227012 25.998236 L 91.227012 64.269072 C 91.227012 77.524281 101.971804 88.269073 115.227013 88.269073 L 256.747856 88.269073 C 270.003065 88.269073 280.747857 77.524281 280.747857 64.269072 L 280.747857 16.998235 " stroke="#042960" stroke-width="4" stroke-opacity="1" stroke-miterlimit="4"/><path stroke-linecap="round" transform="matrix(0.75, 0, 0, 0.75, 84.255527, 133.653668)" fill-opacity="1" fill="#042960" fill-rule="nonzero" stroke-linejoin="round" d="M 1.997839 86.269073 C -1.314661 86.269073 -4.002161 83.581573 -4.002161 80.269073 C -4.002161 76.956573 -1.314661 74.269073 1.997839 74.269073 C 5.315548 74.269073 7.99784 76.956573 7.99784 80.269073 C 7.99784 83.581573 5.315548 86.269073 1.997839 86.269073 " stroke="#042960" stroke-width="4" stroke-opacity="1" stroke-miterlimit="4"/><path stroke-linecap="round" transform="matrix(0.75, 0, 0, 0.75, 84.255527, 133.653668)" fill-opacity="1" fill="#042960" fill-rule="nonzero" stroke-linejoin="round" d="M 280.747857 3.998235 C 284.060358 3.998235 286.747858 6.685735 286.747858 9.998235 C 286.747858 13.315944 284.060358 15.998235 280.747857 15.998235 C 277.430149 15.998235 274.747857 13.315944 274.747857 9.998235 C 274.747857 6.685735 277.430149 3.998235 280.747857 3.998235 " stroke="#042960" stroke-width="4" stroke-opacity="1" stroke-miterlimit="4"/><g clip-path="url(#b47c289af3)"><path fill="#005eeb" d="M 294.808594 98.292969 C 289.429688 98.292969 285.066406 102.65625 285.066406 108.039062 C 285.066406 113.421875 294.808594 127.527344 294.808594 127.527344 C 294.808594 127.527344 304.554688 113.421875 304.554688 108.039062 C 304.554688 102.65625 300.191406 98.292969 294.808594 98.292969 Z M 294.808594 112.652344 C 291.976562 112.652344 289.679688 110.359375 289.679688 107.523438 C 289.679688 104.695312 291.976562 102.398438 294.808594 102.398438 C 297.640625 102.398438 299.9375 104.695312 299.9375 107.523438 C 299.9375 110.359375 297.640625 112.652344 294.808594 112.652344 Z M 294.808594 112.652344 " fill-opacity="1" fill-rule="nonzero"/></g><g fill="#005eeb" fill-opacity="0.4"><g transform="translate(162.336191, 179.60869)"><g><path d="M 9.859375 0.4375 C 8.285156 0.4375 6.847656 0.0351562 5.546875 -0.765625 C 4.242188 -1.566406 3.195312 -2.632812 2.40625 -3.96875 C 1.625 -5.300781 1.234375 -6.769531 1.234375 -8.375 L 1.265625 -22.265625 C 1.265625 -23.878906 1.648438 -25.34375 2.421875 -26.65625 C 3.203125 -27.96875 4.25 -29.019531 5.5625 -29.8125 C 6.882812 -30.601562 8.316406 -31 9.859375 -31 C 11.441406 -31 12.875 -30.601562 14.15625 -29.8125 C 15.445312 -29.019531 16.476562 -27.96875 17.25 -26.65625 C 18.03125 -25.34375 18.421875 -23.878906 18.421875 -22.265625 L 18.453125 -8.375 C 18.453125 -6.769531 18.066406 -5.300781 17.296875 -3.96875 C 16.523438 -2.632812 15.488281 -1.566406 14.1875 -0.765625 C 12.882812 0.0351562 11.441406 0.4375 9.859375 0.4375 Z M 9.859375 -4.859375 C 10.742188 -4.859375 11.515625 -5.21875 12.171875 -5.9375 C 12.828125 -6.65625 13.15625 -7.46875 13.15625 -8.375 L 13.109375 -22.265625 C 13.109375 -23.234375 12.800781 -24.050781 12.1875 -24.71875 C 11.570312 -25.394531 10.796875 -25.734375 9.859375 -25.734375 C 8.953125 -25.734375 8.175781 -25.40625 7.53125 -24.75 C 6.894531 -24.09375 6.578125 -23.265625 6.578125 -22.265625 L 6.578125 -8.375 C 6.578125 -7.40625 6.894531 -6.578125 7.53125 -5.890625 C 8.175781 -5.203125 8.953125 -4.859375 9.859375 -4.859375 Z M 9.859375 -4.859375 "/></g></g></g><g fill="#005eeb" fill-opacity="0.4"><g transform="translate(182.373188, 179.60869)"><g><path d="M 1.921875 0 C 1.804688 0 1.75 -0.0703125 1.75 -0.21875 L 1.84375 -30.34375 C 1.84375 -30.457031 1.898438 -30.515625 2.015625 -30.515625 L 10.875 -30.515625 C 12.445312 -30.515625 13.898438 -30.125 15.234375 -29.34375 C 16.566406 -28.570312 17.625 -27.535156 18.40625 -26.234375 C 19.195312 -24.941406 19.59375 -23.472656 19.59375 -21.828125 C 19.59375 -20.753906 19.429688 -19.785156 19.109375 -18.921875 C 18.796875 -18.054688 18.414062 -17.320312 17.96875 -16.71875 C 17.53125 -16.125 17.140625 -15.679688 16.796875 -15.390625 C 18.367188 -13.640625 19.15625 -11.578125 19.15625 -9.203125 L 19.203125 -0.21875 C 19.203125 -0.0703125 19.128906 0 18.984375 0 L 14.03125 0 C 13.914062 0 13.859375 -0.0390625 13.859375 -0.125 L 13.859375 -9.203125 C 13.859375 -10.253906 13.484375 -11.164062 12.734375 -11.9375 C 11.992188 -12.71875 11.082031 -13.109375 10 -13.109375 L 7.109375 -13.109375 L 7.0625 -0.21875 C 7.0625 -0.0703125 7.003906 0 6.890625 0 Z M 7.109375 -18.375 L 10.875 -18.375 C 11.78125 -18.375 12.582031 -18.707031 13.28125 -19.375 C 13.988281 -20.050781 14.34375 -20.867188 14.34375 -21.828125 C 14.34375 -22.765625 14 -23.566406 13.3125 -24.234375 C 12.625 -24.910156 11.8125 -25.25 10.875 -25.25 L 7.109375 -25.25 Z M 7.109375 -18.375 "/></g></g></g><g fill="#005eeb" fill-opacity="0.4"><g transform="translate(203.506292, 179.60869)"><g><path d="M 1.96875 0 C 1.820312 0 1.75 -0.0703125 1.75 -0.21875 L 1.796875 -30.34375 C 1.796875 -30.457031 1.851562 -30.515625 1.96875 -30.515625 L 6.890625 -30.515625 C 7.003906 -30.515625 7.0625 -30.457031 7.0625 -30.34375 L 7.109375 -0.21875 C 7.109375 -0.0703125 7.046875 0 6.921875 0 Z M 1.96875 0 "/></g></g></g><g fill="#005eeb" fill-opacity="0.4"><g transform="translate(212.713663, 179.60869)"><g><path d="M 1.921875 0 C 1.804688 0 1.75 -0.0703125 1.75 -0.21875 L 1.796875 -30.34375 C 1.796875 -30.457031 1.851562 -30.515625 1.96875 -30.515625 L 16.046875 -30.515625 C 16.160156 -30.515625 16.21875 -30.441406 16.21875 -30.296875 L 16.21875 -25.390625 C 16.21875 -25.265625 16.160156 -25.203125 16.046875 -25.203125 L 7.0625 -25.203125 L 7.0625 -18.375 L 16.046875 -18.375 C 16.160156 -18.375 16.21875 -18.3125 16.21875 -18.1875 L 16.265625 -13.234375 C 16.265625 -13.117188 16.207031 -13.0625 16.09375 -13.0625 L 7.0625 -13.0625 L 7.0625 -5.390625 L 16.09375 -5.390625 C 16.207031 -5.390625 16.265625 -5.316406 16.265625 -5.171875 L 16.265625 -0.171875 C 16.265625 -0.0546875 16.207031 0 16.09375 0 Z M 1.921875 0 "/></g></g></g><g fill="#005eeb" fill-opacity="0.4"><g transform="translate(231.128403, 179.60869)"><g><path d="M 2.140625 0 C 1.910156 0 1.796875 -0.101562 1.796875 -0.3125 L 1.75 -30.171875 C 1.75 -30.398438 1.867188 -30.515625 2.109375 -30.515625 L 6.046875 -30.515625 L 13.453125 -13.234375 L 13.234375 -30.171875 C 13.234375 -30.398438 13.367188 -30.515625 13.640625 -30.515625 L 17.96875 -30.515625 C 18.144531 -30.515625 18.234375 -30.398438 18.234375 -30.171875 L 18.28125 -0.265625 C 18.28125 -0.0859375 18.207031 0 18.0625 0 L 14.203125 0 L 6.625 -16.140625 L 6.921875 -0.34375 C 6.921875 -0.113281 6.789062 0 6.53125 0 Z M 2.140625 0 "/></g></g></g><g fill="#005eeb" fill-opacity="0.4"><g transform="translate(251.472305, 179.60869)"><g><path d="M 6.140625 0 C 6.023438 0 5.96875 -0.0703125 5.96875 -0.21875 L 5.96875 -25.203125 L 0.265625 -25.203125 C 0.117188 -25.203125 0.046875 -25.273438 0.046875 -25.421875 L 0.09375 -30.34375 C 0.09375 -30.457031 0.148438 -30.515625 0.265625 -30.515625 L 16.921875 -30.515625 C 17.066406 -30.515625 17.140625 -30.457031 17.140625 -30.34375 L 17.140625 -25.421875 C 17.140625 -25.273438 17.082031 -25.203125 16.96875 -25.203125 L 11.21875 -25.203125 L 11.265625 -0.21875 C 11.265625 -0.0703125 11.207031 0 11.09375 0 Z M 6.140625 0 "/></g></g></g><g fill="#005eeb" fill-opacity="0.4"><g transform="translate(269.010151, 179.60869)"><g><path d="M 0.265625 -0.21875 L 5.703125 -30.34375 C 5.734375 -30.457031 5.804688 -30.515625 5.921875 -30.515625 L 12.28125 -30.515625 C 12.394531 -30.515625 12.46875 -30.457031 12.5 -30.34375 L 17.71875 -0.21875 C 17.738281 -0.0703125 17.675781 0 17.53125 0 L 12.671875 0 C 12.554688 0 12.484375 -0.0703125 12.453125 -0.21875 L 11.96875 -3.421875 L 6 -3.421875 L 5.53125 -0.21875 C 5.5 -0.0703125 5.425781 0 5.3125 0 L 0.4375 0 C 0.320312 0 0.265625 -0.0703125 0.265625 -0.21875 Z M 6.890625 -8.109375 L 11.09375 -8.109375 L 9.296875 -20.4375 L 9.03125 -22.046875 L 8.859375 -20.4375 Z M 6.890625 -8.109375 "/></g></g></g><g fill="#005eeb" fill-opacity="1"><g transform="translate(160.398217, 177.670717)"><g><path d="M 9.859375 0.4375 C 8.285156 0.4375 6.847656 0.0351562 5.546875 -0.765625 C 4.242188 -1.566406 3.195312 -2.632812 2.40625 -3.96875 C 1.625 -5.300781 1.234375 -6.769531 1.234375 -8.375 L 1.265625 -22.265625 C 1.265625 -23.878906 1.648438 -25.34375 2.421875 -26.65625 C 3.203125 -27.96875 4.25 -29.019531 5.5625 -29.8125 C 6.882812 -30.601562 8.316406 -31 9.859375 -31 C 11.441406 -31 12.875 -30.601562 14.15625 -29.8125 C 15.445312 -29.019531 16.476562 -27.96875 17.25 -26.65625 C 18.03125 -25.34375 18.421875 -23.878906 18.421875 -22.265625 L 18.453125 -8.375 C 18.453125 -6.769531 18.066406 -5.300781 17.296875 -3.96875 C 16.523438 -2.632812 15.488281 -1.566406 14.1875 -0.765625 C 12.882812 0.0351562 11.441406 0.4375 9.859375 0.4375 Z M 9.859375 -4.859375 C 10.742188 -4.859375 11.515625 -5.21875 12.171875 -5.9375 C 12.828125 -6.65625 13.15625 -7.46875 13.15625 -8.375 L 13.109375 -22.265625 C 13.109375 -23.234375 12.800781 -24.050781 12.1875 -24.71875 C 11.570312 -25.394531 10.796875 -25.734375 9.859375 -25.734375 C 8.953125 -25.734375 8.175781 -25.40625 7.53125 -24.75 C 6.894531 -24.09375 6.578125 -23.265625 6.578125 -22.265625 L 6.578125 -8.375 C 6.578125 -7.40625 6.894531 -6.578125 7.53125 -5.890625 C 8.175781 -5.203125 8.953125 -4.859375 9.859375 -4.859375 Z M 9.859375 -4.859375 "/></g></g></g><g fill="#005eeb" fill-opacity="1"><g transform="translate(180.435214, 177.670717)"><g><path d="M 1.921875 0 C 1.804688 0 1.75 -0.0703125 1.75 -0.21875 L 1.84375 -30.34375 C 1.84375 -30.457031 1.898438 -30.515625 2.015625 -30.515625 L 10.875 -30.515625 C 12.445312 -30.515625 13.898438 -30.125 15.234375 -29.34375 C 16.566406 -28.570312 17.625 -27.535156 18.40625 -26.234375 C 19.195312 -24.941406 19.59375 -23.472656 19.59375 -21.828125 C 19.59375 -20.753906 19.429688 -19.785156 19.109375 -18.921875 C 18.796875 -18.054688 18.414062 -17.320312 17.96875 -16.71875 C 17.53125 -16.125 17.140625 -15.679688 16.796875 -15.390625 C 18.367188 -13.640625 19.15625 -11.578125 19.15625 -9.203125 L 19.203125 -0.21875 C 19.203125 -0.0703125 19.128906 0 18.984375 0 L 14.03125 0 C 13.914062 0 13.859375 -0.0390625 13.859375 -0.125 L 13.859375 -9.203125 C 13.859375 -10.253906 13.484375 -11.164062 12.734375 -11.9375 C 11.992188 -12.71875 11.082031 -13.109375 10 -13.109375 L 7.109375 -13.109375 L 7.0625 -0.21875 C 7.0625 -0.0703125 7.003906 0 6.890625 0 Z M 7.109375 -18.375 L 10.875 -18.375 C 11.78125 -18.375 12.582031 -18.707031 13.28125 -19.375 C 13.988281 -20.050781 14.34375 -20.867188 14.34375 -21.828125 C 14.34375 -22.765625 14 -23.566406 13.3125 -24.234375 C 12.625 -24.910156 11.8125 -25.25 10.875 -25.25 L 7.109375 -25.25 Z M 7.109375 -18.375 "/></g></g></g><g fill="#005eeb" fill-opacity="1"><g transform="translate(201.568319, 177.670717)"><g><path d="M 1.96875 0 C 1.820312 0 1.75 -0.0703125 1.75 -0.21875 L 1.796875 -30.34375 C 1.796875 -30.457031 1.851562 -30.515625 1.96875 -30.515625 L 6.890625 -30.515625 C 7.003906 -30.515625 7.0625 -30.457031 7.0625 -30.34375 L 7.109375 -0.21875 C 7.109375 -0.0703125 7.046875 0 6.921875 0 Z M 1.96875 0 "/></g></g></g><g fill="#005eeb" fill-opacity="1"><g transform="translate(210.775689, 177.670717)"><g><path d="M 1.921875 0 C 1.804688 0 1.75 -0.0703125 1.75 -0.21875 L 1.796875 -30.34375 C 1.796875 -30.457031 1.851562 -30.515625 1.96875 -30.515625 L 16.046875 -30.515625 C 16.160156 -30.515625 16.21875 -30.441406 16.21875 -30.296875 L 16.21875 -25.390625 C 16.21875 -25.265625 16.160156 -25.203125 16.046875 -25.203125 L 7.0625 -25.203125 L 7.0625 -18.375 L 16.046875 -18.375 C 16.160156 -18.375 16.21875 -18.3125 16.21875 -18.1875 L 16.265625 -13.234375 C 16.265625 -13.117188 16.207031 -13.0625 16.09375 -13.0625 L 7.0625 -13.0625 L 7.0625 -5.390625 L 16.09375 -5.390625 C 16.207031 -5.390625 16.265625 -5.316406 16.265625 -5.171875 L 16.265625 -0.171875 C 16.265625 -0.0546875 16.207031 0 16.09375 0 Z M 1.921875 0 "/></g></g></g><g fill="#005eeb" fill-opacity="1"><g transform="translate(229.19043, 177.670717)"><g><path d="M 2.140625 0 C 1.910156 0 1.796875 -0.101562 1.796875 -0.3125 L 1.75 -30.171875 C 1.75 -30.398438 1.867188 -30.515625 2.109375 -30.515625 L 6.046875 -30.515625 L 13.453125 -13.234375 L 13.234375 -30.171875 C 13.234375 -30.398438 13.367188 -30.515625 13.640625 -30.515625 L 17.96875 -30.515625 C 18.144531 -30.515625 18.234375 -30.398438 18.234375 -30.171875 L 18.28125 -0.265625 C 18.28125 -0.0859375 18.207031 0 18.0625 0 L 14.203125 0 L 6.625 -16.140625 L 6.921875 -0.34375 C 6.921875 -0.113281 6.789062 0 6.53125 0 Z M 2.140625 0 "/></g></g></g><g fill="#005eeb" fill-opacity="1"><g transform="translate(249.534332, 177.670717)"><g><path d="M 6.140625 0 C 6.023438 0 5.96875 -0.0703125 5.96875 -0.21875 L 5.96875 -25.203125 L 0.265625 -25.203125 C 0.117188 -25.203125 0.046875 -25.273438 0.046875 -25.421875 L 0.09375 -30.34375 C 0.09375 -30.457031 0.148438 -30.515625 0.265625 -30.515625 L 16.921875 -30.515625 C 17.066406 -30.515625 17.140625 -30.457031 17.140625 -30.34375 L 17.140625 -25.421875 C 17.140625 -25.273438 17.082031 -25.203125 16.96875 -25.203125 L 11.21875 -25.203125 L 11.265625 -0.21875 C 11.265625 -0.0703125 11.207031 0 11.09375 0 Z M 6.140625 0 "/></g></g></g><g fill="#005eeb" fill-opacity="1"><g transform="translate(267.072178, 177.670717)"><g><path d="M 0.265625 -0.21875 L 5.703125 -30.34375 C 5.734375 -30.457031 5.804688 -30.515625 5.921875 -30.515625 L 12.28125 -30.515625 C 12.394531 -30.515625 12.46875 -30.457031 12.5 -30.34375 L 17.71875 -0.21875 C 17.738281 -0.0703125 17.675781 0 17.53125 0 L 12.671875 0 C 12.554688 0 12.484375 -0.0703125 12.453125 -0.21875 L 11.96875 -3.421875 L 6 -3.421875 L 5.53125 -0.21875 C 5.5 -0.0703125 5.425781 0 5.3125 0 L 0.4375 0 C 0.320312 0 0.265625 -0.0703125 0.265625 -0.21875 Z M 6.890625 -8.109375 L 11.09375 -8.109375 L 9.296875 -20.4375 L 9.03125 -22.046875 L 8.859375 -20.4375 Z M 6.890625 -8.109375 "/></g></g></g></svg>